<mxfile host="app.diagrams.net" agent="Mozilla/5.0 (Windows NT 10.0; Win64; x64) AppleWebKit/537.36 (KHTML, like Gecko) Chrome/135.0.0.0 Safari/537.36" version="26.2.5">
  <diagram name="Page-1" id="VBAbfNX8vD20n5oRFVk7">
    <mxGraphModel dx="1368" dy="748" grid="1" gridSize="10" guides="1" tooltips="1" connect="1" arrows="1" fold="1" page="1" pageScale="1" pageWidth="850" pageHeight="1100" math="0" shadow="0">
      <root>
        <mxCell id="0" />
        <mxCell id="1" parent="0" />
        <mxCell id="fOV3zhI_aSA9px2-x9E6-16" style="edgeStyle=orthogonalEdgeStyle;rounded=0;orthogonalLoop=1;jettySize=auto;html=1;exitX=0.25;exitY=1;exitDx=0;exitDy=0;entryX=0;entryY=0.5;entryDx=0;entryDy=0;" edge="1" parent="1" source="fOV3zhI_aSA9px2-x9E6-1" target="fOV3zhI_aSA9px2-x9E6-10">
          <mxGeometry relative="1" as="geometry" />
        </mxCell>
        <mxCell id="fOV3zhI_aSA9px2-x9E6-17" style="edgeStyle=orthogonalEdgeStyle;rounded=0;orthogonalLoop=1;jettySize=auto;html=1;exitX=0.25;exitY=1;exitDx=0;exitDy=0;entryX=0;entryY=0.5;entryDx=0;entryDy=0;" edge="1" parent="1" source="fOV3zhI_aSA9px2-x9E6-1" target="fOV3zhI_aSA9px2-x9E6-14">
          <mxGeometry relative="1" as="geometry" />
        </mxCell>
        <mxCell id="fOV3zhI_aSA9px2-x9E6-18" style="edgeStyle=orthogonalEdgeStyle;rounded=0;orthogonalLoop=1;jettySize=auto;html=1;exitX=0.25;exitY=1;exitDx=0;exitDy=0;entryX=0;entryY=0.5;entryDx=0;entryDy=0;" edge="1" parent="1" source="fOV3zhI_aSA9px2-x9E6-1" target="fOV3zhI_aSA9px2-x9E6-15">
          <mxGeometry relative="1" as="geometry" />
        </mxCell>
        <mxCell id="fOV3zhI_aSA9px2-x9E6-1" value="Creation" style="whiteSpace=wrap;strokeWidth=2;fontStyle=1;fontSize=16;" vertex="1" parent="1">
          <mxGeometry x="90" y="185" width="170" height="96" as="geometry" />
        </mxCell>
        <mxCell id="fOV3zhI_aSA9px2-x9E6-28" style="edgeStyle=orthogonalEdgeStyle;rounded=0;orthogonalLoop=1;jettySize=auto;html=1;exitX=0.25;exitY=1;exitDx=0;exitDy=0;entryX=0;entryY=0.5;entryDx=0;entryDy=0;" edge="1" parent="1" source="fOV3zhI_aSA9px2-x9E6-2" target="fOV3zhI_aSA9px2-x9E6-19">
          <mxGeometry relative="1" as="geometry" />
        </mxCell>
        <mxCell id="fOV3zhI_aSA9px2-x9E6-29" style="edgeStyle=orthogonalEdgeStyle;rounded=0;orthogonalLoop=1;jettySize=auto;html=1;exitX=0.25;exitY=1;exitDx=0;exitDy=0;entryX=0;entryY=0.5;entryDx=0;entryDy=0;" edge="1" parent="1" source="fOV3zhI_aSA9px2-x9E6-2" target="fOV3zhI_aSA9px2-x9E6-20">
          <mxGeometry relative="1" as="geometry" />
        </mxCell>
        <mxCell id="fOV3zhI_aSA9px2-x9E6-2" value="Pre-Production" style="whiteSpace=wrap;strokeWidth=2;fontStyle=1;fontSize=16;" vertex="1" parent="1">
          <mxGeometry x="320" y="186" width="170" height="95" as="geometry" />
        </mxCell>
        <mxCell id="fOV3zhI_aSA9px2-x9E6-31" style="edgeStyle=orthogonalEdgeStyle;rounded=0;orthogonalLoop=1;jettySize=auto;html=1;exitX=0.25;exitY=1;exitDx=0;exitDy=0;entryX=0;entryY=0.5;entryDx=0;entryDy=0;" edge="1" parent="1" source="fOV3zhI_aSA9px2-x9E6-3" target="fOV3zhI_aSA9px2-x9E6-21">
          <mxGeometry relative="1" as="geometry" />
        </mxCell>
        <mxCell id="fOV3zhI_aSA9px2-x9E6-32" style="edgeStyle=orthogonalEdgeStyle;rounded=0;orthogonalLoop=1;jettySize=auto;html=1;exitX=0.25;exitY=1;exitDx=0;exitDy=0;entryX=0;entryY=0.5;entryDx=0;entryDy=0;" edge="1" parent="1" source="fOV3zhI_aSA9px2-x9E6-3" target="fOV3zhI_aSA9px2-x9E6-22">
          <mxGeometry relative="1" as="geometry" />
        </mxCell>
        <mxCell id="fOV3zhI_aSA9px2-x9E6-3" value="Production" style="whiteSpace=wrap;strokeWidth=2;fontStyle=1;fontSize=16;" vertex="1" parent="1">
          <mxGeometry x="552.5" y="187" width="170" height="95" as="geometry" />
        </mxCell>
        <mxCell id="fOV3zhI_aSA9px2-x9E6-33" style="edgeStyle=orthogonalEdgeStyle;rounded=0;orthogonalLoop=1;jettySize=auto;html=1;exitX=0.25;exitY=1;exitDx=0;exitDy=0;entryX=0;entryY=0.5;entryDx=0;entryDy=0;" edge="1" parent="1" source="fOV3zhI_aSA9px2-x9E6-4" target="fOV3zhI_aSA9px2-x9E6-23">
          <mxGeometry relative="1" as="geometry" />
        </mxCell>
        <mxCell id="fOV3zhI_aSA9px2-x9E6-34" style="edgeStyle=orthogonalEdgeStyle;rounded=0;orthogonalLoop=1;jettySize=auto;html=1;exitX=0.25;exitY=1;exitDx=0;exitDy=0;entryX=0;entryY=0.5;entryDx=0;entryDy=0;" edge="1" parent="1" source="fOV3zhI_aSA9px2-x9E6-4" target="fOV3zhI_aSA9px2-x9E6-24">
          <mxGeometry relative="1" as="geometry" />
        </mxCell>
        <mxCell id="fOV3zhI_aSA9px2-x9E6-4" value="Testing &amp; Iterasi" style="whiteSpace=wrap;strokeWidth=2;fontStyle=1;fontSize=16;" vertex="1" parent="1">
          <mxGeometry x="780" y="188" width="167.5" height="93" as="geometry" />
        </mxCell>
        <mxCell id="fOV3zhI_aSA9px2-x9E6-35" style="edgeStyle=orthogonalEdgeStyle;rounded=0;orthogonalLoop=1;jettySize=auto;html=1;exitX=0.25;exitY=1;exitDx=0;exitDy=0;entryX=0;entryY=0.5;entryDx=0;entryDy=0;" edge="1" parent="1" source="fOV3zhI_aSA9px2-x9E6-5" target="fOV3zhI_aSA9px2-x9E6-25">
          <mxGeometry relative="1" as="geometry" />
        </mxCell>
        <mxCell id="fOV3zhI_aSA9px2-x9E6-36" style="edgeStyle=orthogonalEdgeStyle;rounded=0;orthogonalLoop=1;jettySize=auto;html=1;exitX=0.25;exitY=1;exitDx=0;exitDy=0;entryX=0;entryY=0.5;entryDx=0;entryDy=0;" edge="1" parent="1" source="fOV3zhI_aSA9px2-x9E6-5" target="fOV3zhI_aSA9px2-x9E6-26">
          <mxGeometry relative="1" as="geometry" />
        </mxCell>
        <mxCell id="fOV3zhI_aSA9px2-x9E6-5" value="Launch &amp; Post-Launch" style="whiteSpace=wrap;strokeWidth=2;fontStyle=1;fontSize=16;" vertex="1" parent="1">
          <mxGeometry x="1010" y="189" width="170" height="92" as="geometry" />
        </mxCell>
        <mxCell id="fOV3zhI_aSA9px2-x9E6-6" value="" style="curved=1;startArrow=none;endArrow=block;exitX=1;exitY=0.5;entryX=0;entryY=0.5;rounded=0;" edge="1" parent="1" source="fOV3zhI_aSA9px2-x9E6-1" target="fOV3zhI_aSA9px2-x9E6-2">
          <mxGeometry relative="1" as="geometry">
            <Array as="points" />
          </mxGeometry>
        </mxCell>
        <mxCell id="fOV3zhI_aSA9px2-x9E6-7" value="" style="curved=1;startArrow=none;endArrow=block;exitX=1;exitY=0.5;entryX=0;entryY=0.5;rounded=0;" edge="1" parent="1" source="fOV3zhI_aSA9px2-x9E6-2" target="fOV3zhI_aSA9px2-x9E6-3">
          <mxGeometry relative="1" as="geometry">
            <Array as="points" />
          </mxGeometry>
        </mxCell>
        <mxCell id="fOV3zhI_aSA9px2-x9E6-8" value="" style="curved=1;startArrow=none;endArrow=block;exitX=1;exitY=0.5;entryX=0;entryY=0.5;rounded=0;" edge="1" parent="1" source="fOV3zhI_aSA9px2-x9E6-3" target="fOV3zhI_aSA9px2-x9E6-4">
          <mxGeometry relative="1" as="geometry">
            <Array as="points" />
          </mxGeometry>
        </mxCell>
        <mxCell id="fOV3zhI_aSA9px2-x9E6-9" value="" style="curved=1;startArrow=none;endArrow=block;exitX=1;exitY=0.5;entryX=0;entryY=0.5;rounded=0;" edge="1" parent="1" source="fOV3zhI_aSA9px2-x9E6-4" target="fOV3zhI_aSA9px2-x9E6-5">
          <mxGeometry relative="1" as="geometry">
            <Array as="points" />
          </mxGeometry>
        </mxCell>
        <mxCell id="fOV3zhI_aSA9px2-x9E6-10" value="Brainstorming" style="rounded=0;whiteSpace=wrap;html=1;" vertex="1" parent="1">
          <mxGeometry x="160" y="300" width="140" height="40" as="geometry" />
        </mxCell>
        <mxCell id="fOV3zhI_aSA9px2-x9E6-14" value="Game Design Document" style="rounded=0;whiteSpace=wrap;html=1;" vertex="1" parent="1">
          <mxGeometry x="160" y="350" width="140" height="40" as="geometry" />
        </mxCell>
        <mxCell id="fOV3zhI_aSA9px2-x9E6-15" value="Riset Pasar" style="rounded=0;whiteSpace=wrap;html=1;" vertex="1" parent="1">
          <mxGeometry x="160" y="400" width="140" height="40" as="geometry" />
        </mxCell>
        <mxCell id="fOV3zhI_aSA9px2-x9E6-19" value="Prototyping" style="rounded=0;whiteSpace=wrap;html=1;" vertex="1" parent="1">
          <mxGeometry x="390" y="300" width="140" height="40" as="geometry" />
        </mxCell>
        <mxCell id="fOV3zhI_aSA9px2-x9E6-20" value="Perencanaan" style="rounded=0;whiteSpace=wrap;html=1;" vertex="1" parent="1">
          <mxGeometry x="390" y="350" width="140" height="40" as="geometry" />
        </mxCell>
        <mxCell id="fOV3zhI_aSA9px2-x9E6-21" value="Pengembangan Aset" style="rounded=0;whiteSpace=wrap;html=1;" vertex="1" parent="1">
          <mxGeometry x="620" y="300" width="140" height="40" as="geometry" />
        </mxCell>
        <mxCell id="fOV3zhI_aSA9px2-x9E6-22" value="Coding" style="rounded=0;whiteSpace=wrap;html=1;" vertex="1" parent="1">
          <mxGeometry x="620" y="350" width="140" height="40" as="geometry" />
        </mxCell>
        <mxCell id="fOV3zhI_aSA9px2-x9E6-23" value="QA Testing" style="rounded=0;whiteSpace=wrap;html=1;" vertex="1" parent="1">
          <mxGeometry x="850" y="300" width="140" height="40" as="geometry" />
        </mxCell>
        <mxCell id="fOV3zhI_aSA9px2-x9E6-24" value="Playtesting" style="rounded=0;whiteSpace=wrap;html=1;" vertex="1" parent="1">
          <mxGeometry x="850" y="350" width="140" height="40" as="geometry" />
        </mxCell>
        <mxCell id="fOV3zhI_aSA9px2-x9E6-25" value="Deploy" style="rounded=0;whiteSpace=wrap;html=1;" vertex="1" parent="1">
          <mxGeometry x="1080" y="300" width="140" height="40" as="geometry" />
        </mxCell>
        <mxCell id="fOV3zhI_aSA9px2-x9E6-26" value="Update &amp;amp; Dukungan" style="rounded=0;whiteSpace=wrap;html=1;" vertex="1" parent="1">
          <mxGeometry x="1080" y="350" width="140" height="40" as="geometry" />
        </mxCell>
      </root>
    </mxGraphModel>
  </diagram>
</mxfile>
